<svg xmlns="http://www.w3.org/2000/svg" width="500" height="500" viewBox="0 0 500 500" >
<rect width="500" height="500"/>
<g clip-path="url(#clip0_0_1)">
<rect width="500" height="500" rx="5" ry="5" fill="rgb(255, 111, 135)" />  <!--change the background color of the favicon-->
<path d="M39.1236 381V126.455H139.55C158.773 126.455 175.179 129.893 188.768 136.771C202.44 143.565 212.839 153.218 219.965 165.73C227.174 178.159 230.778 192.784 230.778 209.604C230.778 226.508 227.133 241.05 219.841 253.23C212.549 265.328 201.985 274.608 188.147 281.071C174.392 287.534 157.737 290.766 138.183 290.766H70.9418V247.513H129.482C139.757 247.513 148.291 246.104 155.086 243.287C161.88 240.47 166.935 236.244 170.249 230.609C173.647 224.975 175.345 217.973 175.345 209.604C175.345 201.153 173.647 194.027 170.249 188.227C166.935 182.426 161.839 178.035 154.962 175.052C148.167 171.986 139.591 170.453 129.234 170.453H92.9411V381H39.1236ZM176.588 265.162L239.852 381H180.441L118.545 265.162H176.588ZM259.116 170.826V126.455H468.172V170.826H390.242V381H337.046V170.826H259.116Z" 
fill="rgb(247, 2, 42)"/>    <!--it's use to change the background color of RT-->
</g>
<defs>
<clipPath id="clip0_0_1">
<rect width="500" height="500" fill="white"/>
</clipPath>
</defs>
</svg>